{"title":"Buster (1988) DVDRip XviD AC3 peaSoup","uid":8862257,"size":1398751930,"categoryP":"video","categoryS":"movies","magnet":"?xt=urn:btih:75db62673ea38375835a568e18bc86be2ebf0885&amp;dn=Buster+%281988%29+DVDRip+XviD+AC3+peaSoup&amp;tr=udp%3A%2F%2Ftracker.openbittorrent.com%3A80&amp;tr=udp%3A%2F%2Fopen.demonii.com%3A1337&amp;tr=udp%3A%2F%2Ftracker.coppersurfer.tk%3A6969&amp;tr=udp%3A%2F%2Fexodus.desync.com%3A6969","seeders":1,"leechers":0,"uploader":"peaSoup","files":-1,"time":1377806002,"description":"Storyline\n\nBuster is a small time crook who pulls a big time job. When he finds that the police will not let the case drop, he goes into hiding and can't contact his wife and child. He arranges to meet them in Mexico where he thinks they can begin again, but finds that he must choose between his family and freedom.                           &lt;a href=&quot; http://imageshack.us/a/img580/9872/wk5y.jpg&quot; rel=&quot;nofollow&quot; target=&quot;_NEW&quot;&gt; http://imageshack.us/a/img580/9872/wk5y.jpg&lt;/a&gt;                                         &lt;a href=&quot; http://imageshack.us/a/img10/3183/px3t.jpg&quot; rel=&quot;nofollow&quot; target=&quot;_NEW&quot;&gt; http://imageshack.us/a/img10/3183/px3t.jpg&lt;/a&gt;                                          &lt;a href=&quot; http://imageshack.us/a/img138/7862/8k7w.jpg&quot; rel=&quot;nofollow&quot; target=&quot;_NEW&quot;&gt; http://imageshack.us/a/img138/7862/8k7w.jpg&lt;/a&gt;                                         &lt;a href=&quot; http://imageshack.us/a/img202/8256/eto7.jpg&quot; rel=&quot;nofollow&quot; target=&quot;_NEW&quot;&gt; http://imageshack.us/a/img202/8256/eto7.jpg&lt;/a&gt;                                         &lt;a href=&quot; http://imageshack.us/a/img833/5466/r633.jpg&quot; rel=&quot;nofollow&quot; target=&quot;_NEW&quot;&gt; http://imageshack.us/a/img833/5466/r633.jpg&lt;/a&gt;                                          Format                                   : AVI\nFormat/Info                              : Audio Video Interleave\nFormat profile                           : OpenDML\nFile size                                : 1.30 GiB\nDuration                                 : 1h 32mn\nOverall bit rate                         : 2 010 Kbps\nMovie name                               : Buster (1988) DVDRip XviD AC3 peaSoup\nWriting application                      : Lavf53.21.0\nOriginal source form/Name                : BUSTER\n\nVideo\nID                                       : 0\nFormat                                   : MPEG-4 Visual\nFormat profile                           : Advanced Simple@L5\nFormat settings, BVOP                    : 2\nFormat settings, QPel                    : No\nFormat settings, GMC                     : No warppoints\nFormat settings, Matrix                  : Default (H.263)\nMuxing mode                              : Packed bitstream\nCodec ID                                 : XVID\nCodec ID/Hint                            : XviD\nDuration                                 : 1h 32mn\nBit rate                                 : 1 773 Kbps\nWidth                                    : 720 pixels\nHeight                                   : 494 pixels\nDisplay aspect ratio                     : 3:2\nFrame rate                               : 25.000 fps\nColor space                              : YUV\nChroma subsampling                       : 4:2:0\nBit depth                                : 8 bits\nScan type                                : Progressive\nCompression mode                         : Lossy\nBits/(Pixel*Frame)                       : 0.199\nStream size                              : 1.15 GiB (88%)\nWriting library                          : XviD 1.2.1 (UTC 2008-12-04)\n\nAudio\nID                                       : 1\nFormat                                   : AC-3\nFormat/Info                              : Audio Coding 3\nMode extension                           : ME (music and effects)\nFormat settings, Endianness              : Big\nCodec ID                                 : 2000\nDuration                                 : 1h 32mn\nBit rate mode                            : Constant\nBit rate                                 : 224 Kbps\nChannel(s)                               : 2 channels\nChannel positions                        : Front: L R\nSampling rate                            : 48.0 KHz\nBit depth                                : 16 bits\nCompression mode                         : Lossy\nStream size                              : 149 MiB (11%)\nAlignment                                : Aligned on interleaves\nInterleave, duration                     : 32 ms (0.80 video frame)\n\n","torrent":{"xt":"urn:btih:75db62673ea38375835a568e18bc86be2ebf0885","amp;dn":"Buster+%281988%29+DVDRip+XviD+AC3+peaSoup","amp;tr":["udp%3A%2F%2Ftracker.openbittorrent.com%3A80","udp%3A%2F%2Fopen.demonii.com%3A1337","udp%3A%2F%2Ftracker.coppersurfer.tk%3A6969","udp%3A%2F%2Fexodus.desync.com%3A6969"],"infoHash":"75db62673ea38375835a568e18bc86be2ebf0885","infoHashBuffer":{"type":"Buffer","data":[117,219,98,103,62,163,131,117,131,90,86,142,24,188,134,190,46,191,8,133]},"announce":[],"urlList":[]}}